<svg width="100" height="82" viewBox="0 0 100 82" fill="none" xmlns="http://www.w3.org/2000/svg">
<path d="M79.4 55.5C79.8 55.3 82.7 56.6 82.7 56.6L77.5 52.1L74.4 52.8L77.4 54.3L76.3 58.6C76.3 58.5 79 55.7 79.4 55.5Z" fill="white"/>
<path d="M71.8 45.9L71 47.6H68.1L63.6 44.9L61.7 56.7L60.8 59.8L66.7 52.6L70.4 59.2L71.6 52.3L77.6 51.6L71.8 45.9Z" fill="white"/>
<path d="M17.2 49.6L23.7 47.3L29.9 42L35.7 39.8L43.2 33.2L46 31.6L48.1 28.7L53.5 34.5L55.2 37.4L67.8 45.2L70.7 44.9L72.9 43.4L83.4 54.8L88 54.2L98 64.1C99.2 59.8 99.9 55.2 99.9 50.5C99.9 45.1 99 39.9 97.5 35.1C96.4 31.6 93.2 29.1 89.5 28.8L70.1 27.3L89.1 23.6C90.4 23.3 91 21.8 90.2 20.7C89.9 20.3 89.6 20 89.4 19.6C88.7 18.7 87.6 18.1 86.4 18L52.4 15.6C52.4 15.6 67.2 15.4 71.4 14.8C75.6 14.2 70.3 12.7 70.3 12.7C71.9 12.6 73.3 12.4 74.5 12.1C76.8 11.6 77.3 8.5 75.2 7.3C67.8 3 59.2 0.5 50 0.5C33.9 0.5 19.5 8.2 10.4 20C9 21.8 9.6 24.4 11.6 25.4C13.4 26.3 15.8 27 19.3 27.2C19.3 27.2 14 28.7 18.2 29.3C22.4 29.9 37.2 30.1 37.2 30.1L6.3 32.3C4.4 32.4 2.9 33.7 2.3 35.4C2.3 35.4 2.3 35.4 2.3 35.5C1.8 37 2.8 38.5 4.3 38.8L19.5 41.8L3.9 42.9C1.9 43.1 0.3 44.6 0.1 46.6C0 47.8 0 49.1 0 50.4C0 54.8 0.6 59.1 1.7 63.2L17.2 49.6Z" fill="url(#paint0_linear_1531_35)"/>
<path d="M55.1 47.6L52.7 48.1L55 46.6L52.4 42.7001L49 42.2001L51.3 40.8C49.1 38.4 48.2 30.3 48.2 30.3L46 33.3L43.6 34.2001L37.7 41.2001L35.3 43.1L30.3 54L39.5 46C39.5 46 38.9 50.4001 39 50.9001C39.1 51.4001 41.4 53.2001 41.4 53.2001L42.4 57.7001L46.2 49L48.7 46.8L49 51.4001L51.4 53.1L52.3 60.9001L53.5 55.5L56 58.8L53.6 50.7001L56.2 50.1L55.1 47.6Z" fill="white"/>
<path d="M21.7 54.9L23.7 59.8L24.9 56.3L25.1 62.7L28 49.4L28.2 52.8L30.4 45L23 50.6L19.8 51.4L7.6 62.3L14.1 58.4L12.5 61.7L18.3 57.4L17.3 60.7L21.7 54.9Z" fill="white"/>
<path d="M84.9 57.7L87.5 57.1L96.8 65.1L91.9 63.2L92.8 64.7L89 62.2L86.8 64.5L87.7 58.6L86.9 57.8L84.9 57.7Z" fill="white"/>
<path d="M6.58325 79L4.39893 70.7681H5.51636L6.76855 76.1643C6.90332 76.7296 7.01937 77.2911 7.1167 77.8489C7.32633 76.9692 7.44987 76.4619 7.4873 76.3271L9.05396 70.7681H10.3679L11.5471 74.9346C11.8429 75.9678 12.0562 76.9392 12.1873 77.8489C12.2921 77.3285 12.4287 76.7314 12.5972 76.0576L13.8887 70.7681H14.9836L12.7263 79H11.6763L9.94116 72.7278C9.79517 72.2037 9.70907 71.8818 9.68286 71.762C9.59676 72.1401 9.51628 72.462 9.44141 72.7278L7.69507 79H6.58325ZM16.1909 79V70.7681H17.2803V79H16.1909ZM19.1614 79V70.7681H20.2507V78.0286H24.3049V79H19.1614ZM25.6077 79V70.7681H28.4434C29.0835 70.7681 29.572 70.8074 29.9089 70.886C30.3806 70.9945 30.783 71.1911 31.1162 71.4756C31.5505 71.8424 31.8743 72.3123 32.0876 72.885C32.3048 73.454 32.4133 74.1054 32.4133 74.8391C32.4133 75.4643 32.3403 76.0183 32.1943 76.5012C32.0483 76.9841 31.8612 77.3847 31.6328 77.7029C31.4045 78.0173 31.1536 78.2663 30.8804 78.4497C30.6108 78.6294 30.2833 78.766 29.8977 78.8596C29.5159 78.9532 29.076 79 28.5781 79H25.6077ZM26.697 78.0286H28.4546C28.9974 78.0286 29.4223 77.978 29.7292 77.877C30.04 77.7759 30.287 77.6336 30.4705 77.4502C30.7288 77.1919 30.929 76.8456 31.0713 76.4114C31.2173 75.9734 31.2903 75.4437 31.2903 74.8223C31.2903 73.9613 31.148 73.3005 30.8635 72.8401C30.5828 72.3759 30.2402 72.0652 29.8359 71.908C29.5439 71.7957 29.0741 71.7395 28.4265 71.7395H26.697V78.0286ZM37.0852 79V70.7681H38.7249L40.6733 76.5967C40.853 77.1395 40.984 77.5457 41.0664 77.8152C41.16 77.5157 41.306 77.0758 41.5044 76.4956L43.4753 70.7681H44.9409V79H43.8909V72.1101L41.4988 79H40.5161L38.1353 71.9922V79H37.0852ZM46.3672 74.9907C46.3672 73.6243 46.734 72.5556 47.4678 71.7844C48.2015 71.0095 49.1486 70.6221 50.3091 70.6221C51.069 70.6221 51.7541 70.8036 52.3643 71.1667C52.9744 71.5299 53.4386 72.0371 53.7568 72.6885C54.0788 73.3361 54.2397 74.0717 54.2397 74.8953C54.2397 75.7301 54.0713 76.4769 53.7344 77.1357C53.3975 77.7946 52.9202 78.2944 52.3025 78.635C51.6848 78.9719 51.0185 79.1404 50.3035 79.1404C49.5286 79.1404 48.836 78.9532 48.2258 78.5789C47.6156 78.2045 47.1533 77.6935 46.8389 77.0459C46.5244 76.3983 46.3672 75.7132 46.3672 74.9907ZM47.4902 75.0076C47.4902 75.9996 47.756 76.782 48.2876 77.3547C48.8229 77.9237 49.493 78.2083 50.2979 78.2083C51.1177 78.2083 51.7915 77.92 52.3193 77.3435C52.8509 76.767 53.1167 75.9491 53.1167 74.8896C53.1167 74.2196 53.0025 73.6356 52.7742 73.1377C52.5496 72.6361 52.2183 72.2486 51.7803 71.9753C51.346 71.6983 50.8575 71.5598 50.3147 71.5598C49.5435 71.5598 48.8791 71.8256 48.3213 72.3572C47.7673 72.885 47.4902 73.7685 47.4902 75.0076ZM61.051 70.7681H62.1404V75.5242C62.1404 76.3515 62.0468 77.0085 61.8596 77.4951C61.6724 77.9818 61.3337 78.3786 60.8433 78.6855C60.3566 78.9888 59.7165 79.1404 58.9229 79.1404C58.1517 79.1404 57.5209 79.0075 57.0305 78.7417C56.5401 78.4759 56.1901 78.0922 55.9805 77.5906C55.7708 77.0852 55.666 76.3964 55.666 75.5242V70.7681H56.7554V75.5186C56.7554 76.2336 56.8209 76.7614 56.9519 77.1021C57.0867 77.439 57.315 77.6991 57.637 77.8826C57.9626 78.066 58.3595 78.1577 58.8274 78.1577C59.6285 78.1577 60.1994 77.9762 60.54 77.613C60.8807 77.2499 61.051 76.5518 61.051 75.5186V70.7681ZM63.9485 79V70.7681H65.0659L69.3896 77.2312V70.7681H70.4341V79H69.3167L64.9929 72.5312V79H63.9485ZM74.3647 79V71.7395H71.6526V70.7681H78.1775V71.7395H75.4541V79H74.3647ZM77.543 79L80.7043 70.7681H81.8779L85.2471 79H84.0061L83.0459 76.5068H79.6038L78.6997 79H77.543ZM79.9182 75.6196H82.709L81.8499 73.3398C81.5878 72.6473 81.3931 72.0783 81.2659 71.6328C81.1611 72.1606 81.0132 72.6847 80.8223 73.2051L79.9182 75.6196ZM86.3027 79V70.7681H87.3921V79H86.3027ZM89.3069 79V70.7681H90.4243L94.748 77.2312V70.7681H95.7925V79H94.675L90.3513 72.5312V79H89.3069Z" fill="#FFFFFF"/>
<defs>
<linearGradient id="paint0_linear_1531_35" x1="49.95" y1="64.0195" x2="49.95" y2="0.419501" gradientUnits="userSpaceOnUse">
<stop stop-color="#926835"/>
<stop offset="1" stop-color="#D2AF84"/>
</linearGradient>
</defs>
</svg>
