<svg version="1.1" id="Layer_1" xmlns="http://www.w3.org/2000/svg" xmlns:xlink="http://www.w3.org/1999/xlink" x="0px" y="0px"
	 viewBox="0 0 100 65" style="enable-background:new 0 0 100 65;" xml:space="preserve">
	<style type="text/css">
		.st0{fill:url(#XMLID_00000145761785494453314090000010297370620289025441_);}
	</style>
	<g id="XMLID_3207_">
		<g id="XMLID_5528_">
			<path id="XMLID_5533_" d="M79.2,55c0.4-0.2,3.3,1.1,3.3,1.1l-5.2-4.5l-3.1,0.7l3,1.5l-1.1,4.3C76.1,58,78.8,55.2,79.2,55z"/>
			<polygon id="XMLID_5532_" points="71.6,45.4 70.8,47.1 67.9,47.1 63.4,44.4 61.5,56.2 60.6,59.3 66.5,52.1 70.2,58.7 71.4,51.8 
				77.4,51.1"/>
				<linearGradient id="XMLID_00000071553586040080055420000017823788666213558202_" gradientUnits="userSpaceOnUse" x1="49.75" y1="36.4805" x2="49.75" y2="100.0805" gradientTransform="matrix(1 0 0 -1 0 100)">
				<stop offset="0" style="stop-color:#F69323"/>
				<stop offset="1" style="stop-color:#F15C2B"/>
			</linearGradient>
			<path id="XMLID_5531_" style="fill:url(#XMLID_00000071553586040080055420000017823788666213558202_);" d="M17,49.1l6.5-2.3
				l6.2-5.3l5.8-2.2l7.5-6.6l2.8-1.6l2.1-2.9l5.4,5.8l1.7,2.9l12.6,7.8l2.9-0.3l2.2-1.5l10.5,11.4l4.6-0.6l10,9.9
				c1.2-4.3,1.9-8.9,1.9-13.6c0-5.4-0.9-10.6-2.4-15.4c-1.1-3.5-4.3-6-8-6.3l-19.4-1.5l19-3.7c1.3-0.3,1.9-1.8,1.1-2.9
				c-0.3-0.4-0.6-0.7-0.8-1.1c-0.7-0.9-1.8-1.5-3-1.6l-34-2.4c0,0,14.8-0.2,19-0.8c4.2-0.6-1.1-2.1-1.1-2.1c1.6-0.1,3-0.3,4.2-0.6
				c2.3-0.5,2.8-3.6,0.7-4.8C67.6,2.5,59,0,49.8,0C33.7,0,19.3,7.7,10.2,19.5c-1.4,1.8-0.8,4.4,1.2,5.4c1.8,0.9,4.2,1.6,7.7,1.8
				c0,0-5.3,1.5-1.1,2.1s19,0.8,19,0.8L6.1,31.8c-1.9,0.1-3.4,1.4-4,3.1c0,0,0,0,0,0.1c-0.5,1.5,0.5,3,2,3.3l15.2,3L3.7,42.4
				c-2,0.2-3.6,1.7-3.8,3.7c-0.1,1.2-0.1,2.5-0.1,3.8c0,4.4,0.6,8.7,1.7,12.8L17,49.1z"/>
			<path id="XMLID_5530_" d="M54.9,47.1l-2.4,0.5l2.3-1.5l-2.6-3.9l-3.4-0.5l2.3-1.4C48.9,37.9,48,29.8,48,29.8l-2.2,3l-2.4,0.9
				l-5.9,7l-2.4,1.9l-5,10.9l9.2-8c0,0-0.6,4.4-0.5,4.9s2.4,2.3,2.4,2.3l1,4.5l3.8-8.7l2.5-2.2l0.3,4.6l2.4,1.7l0.9,7.8l1.2-5.4
				l2.5,3.3l-2.4-8.1l2.6-0.6L54.9,47.1z"/>
			<polygon id="XMLID_5529_" points="21.5,54.4 23.5,59.3 24.7,55.8 24.9,62.2 27.8,48.9 28,52.3 30.2,44.5 22.8,50.1 19.6,50.9 7.4,61.8 13.9,57.9 12.3,61.2 18.1,56.9 17.1,60.2"/>
		</g>
		<polygon id="XMLID_5527_" points="84.7,57.2 87.3,56.6 96.6,64.6 91.7,62.7 92.6,64.2 88.8,61.7 86.6,64 87.5,58.1 86.7,57.3"/>
	</g>
</svg>
